<svg xmlns="http://www.w3.org/2000/svg" width="30" height="27" fill="none"><path fill="#303030" d="M29.76 5.7a1.13 1.13 0 0 0-.9-.44H6.5L5.48.9C5.36.37 4.9 0 4.37 0H1.09C.46 0 0 .25 0 .9c0 .63.46.78 1.1.78H3.81l.55.64 3.19 15.4c.12.52.96 1.28 1.48 1.28h17.04c.52 0 .98-.36 1.1-.88L29.98 6.7c.08-.34 0-.71-.21-1zm-3.9 11.75H9.03L7 7H28.3l-1.11 5.4-1.34 5.05z"/><circle cx="9.5" cy="23.5" r="2.88" stroke="#303030" stroke-width="1.25"/><circle cx="24.5" cy="23.5" r="2.88" stroke="#303030" stroke-width="1.25"/></svg>