<svg xmlns="http://www.w3.org/2000/svg" width="21" height="26" fill="none"><path fill="#303030" d="M10.5 0A10.47 10.47 0 0 0 .25 12.73c.16.7.4 1.4.7 2.05 1.13 2.65 3.62 6.7 9.07 11.06a.75.75 0 0 0 .94 0c5.45-4.35 7.94-8.41 9.07-11.06a10.1 10.1 0 0 0 .96-4.36A10.49 10.49 0 0 0 10.5 0zm8.84 12.12v.04l-.05.23v.01c-.14.61-.34 1.2-.61 1.78l-.01.02c-1.03 2.41-3.28 6.1-8.18 10.12-4.9-4.02-7.14-7.7-8.17-10.12v-.02a9.19 9.19 0 0 1-.62-1.78v-.01l-.05-.23v-.04A9 9 0 0 1 10.5 1.47a9 9 0 0 1 8.84 10.65z"/><path fill="#303030" d="M10.5 3.92a6.65 6.65 0 0 0-6.67 6.62c0 3.64 3 6.61 6.66 6.61a6.65 6.65 0 0 0 6.67-6.61c0-3.65-3-6.62-6.67-6.62zm0 11.76a5.17 5.17 0 0 1-5.19-5.14 5.17 5.17 0 0 1 10.37 0 5.17 5.17 0 0 1-5.19 5.14z"/></svg>