<svg xmlns="http://www.w3.org/2000/svg" fill="none" width="28" height="28" viewBox="0 0 28 28"><path fill="#303030" d="M22.1 17.3c-.6-.6-1.3-1-2-1s-1.4.4-2 1l-1.9 1.9-.4-.3-.6-.3a20.3 20.3 0 0 1-6.5-7l1.4-1.3.5-.5c1.2-1.3 1.2-2.9 0-4.1L9 4a24.7 24.7 0 0 1-1.7-1.7c-.6-.6-1.2-.9-2-.9-.7 0-1.4.3-2 .9l-2 2C.6 5.2.1 6.1 0 7.2c-.1 1.7.4 3.3.8 4.4a27.8 27.8 0 0 0 13.8 14.8A14.4 14.4 0 0 0 20 28c1.4 0 2.5-.5 3.4-1.5l1.1-1 .8-.8a3 3 0 0 0 .9-2c0-.8-.3-1.5-1-2.1l-3.2-3.3zm2.1 6.3l-.7.7c-.4.3-.8.7-1.1 1.2-.6.6-1.3.9-2.3.9H20c-1.8-.1-3.4-.8-4.6-1.4a26.3 26.3 0 0 1-13-14 8.5 8.5 0 0 1-.7-3.7c0-.7.3-1.2.8-1.7l2-2c.3-.3.6-.5 1-.5a1.3 1.3 0 0 1 .8.5l1 1 .7.6 1.6 1.6c.6.6.6 1.2 0 1.8l-.5.6-1.5 1.4c-.6.5-.5 1-.4 1.4a21.7 21.7 0 0 0 7.9 8.3l.6.4h.1l.6.2c.5 0 .8-.3.9-.4l2-2c.2-.3.5-.5.9-.5s.7.2.9.4l3.2 3.3c.6.6.6 1.2 0 1.9zM15.2 6.6c1.6.2 3 1 4 2.1a7.6 7.6 0 0 1 2.2 4c0 .5.4.8.8.8h.1c.5-.1.8-.5.7-1A9.1 9.1 0 0 0 15.5 5c-.5 0-.9.2-1 .7 0 .4.3.8.7.9z"/><path fill="#303030" d="M28 12.3A15 15 0 0 0 15.7 0a.8.8 0 1 0-.3 1.6 13.4 13.4 0 0 1 11 11c0 .4.4.6.8.6h.1c.5 0 .8-.4.7-.9z"/></svg>