<svg xmlns="http://www.w3.org/2000/svg" width="26" height="26" fill="none"><path fill="#303030" d="M25.7481 24.5149l-3.9576-3.9566c1.8988-2.1824 3.0484-5.0298 3.0484-8.1419C24.8389 5.5657 19.2653 0 12.4194 0 5.5671 0 0 5.5722 0 12.4164c0 6.8441 5.5736 12.4163 12.4194 12.4163 3.113 0 5.9611-1.1493 8.144-3.0476 0 0 1.2853 1.6149 4.4028 4.2149.5201 0 .614-.0839.7819-.2583.3359-.3357.3359-.891 0-1.2268zM1.7373 12.4164c0-5.8886 4.7921-10.673 10.6757-10.673 5.89 0 10.6757 4.7908 10.6757 10.673 0 5.8821-4.7857 10.6794-10.6757 10.6794-5.8836 0-10.6757-4.7909-10.6757-10.6794z"/></svg>