<svg xmlns="http://www.w3.org/2000/svg" width="160" height="106" fill="none"><path fill="#F2C89D" d="M0 0h87L72 106H0V0z"/><g filter="url(#filter0_d)"><path fill="#F3C870" d="M87 0h73v106H72L87 0z"/><path stroke="#46577C" stroke-linejoin="round" d="M159.5.5v105h-87l15-105h72z"/></g><path fill="#fff" d="M41.6 72.5a21 21 0 1 0 0-42 21 21 0 0 0 0 42z"/><path fill="#fff" d="M54 68.3l-13.4-8.8v5h-2c-12.6-1-22.4-6.1-22.4-11.7a5 5 0 0 1 1.4-3.5v-1.2c-5 2.6-6.9 5.8-6.9 9 0 7.4 11.7 14.3 27.9 15.4h2v5L54 68.3z"/><path fill="#46577C" d="M39.6 79.4v-5.9h-1C22.1 72.4 9.7 65.3 9.7 57.2c0-4 2.5-7.3 7.4-9.9l1.5-.7v3.2l-.2.2c-.7.8-1.1 1.8-1.1 2.9 0 4.9 9.6 9.7 21.5 10.7h.9v-5.9l16.2 10.6-16.3 11.1zm1-7.8h1v4.1l10.6-7.3-10.6-7v4.2h-3C25.2 64.4 15.2 59 15.2 52.8c0-.8.1-1.6.5-2.3-2.7 1.9-4 4.1-4 6.6 0 7 11.8 13.4 26.9 14.4h2v.1z"/><path fill="#fff" d="M68.5 50.2c.9 1 1.4 2.3 1.5 3.6 0 4.6-6.9 8.6-16.5 10l7.2 4.1c6.9-2.5 11.4-6.5 11.4-11.1-.1-2.4-1.4-4.6-3.6-6.6z"/><path fill="#46577C" d="M60.5 69.1l-10.1-5.8 2.8-.4c9.2-1.4 15.7-5.1 15.7-9 0-1.1-.5-2.2-1.3-3l1.4-1.4c2.5 2.2 3.9 4.8 3.9 7.4 0 4.8-4.4 9.2-12.1 12l-.3.2zm-4.2-4.8l4.4 2.5c6.5-2.5 10.3-6.2 10.3-10l-.2-1.6c-1 4.1-6.4 7.4-14.5 9.1zm-13.7-8.8h-5a2 2 0 0 1-2-2v-10c0-1.1.9-2 2-2h5a2 2 0 0 1 2 2v2h-2v-2h-5v4.3l1.2-.3h3.8a2 2 0 0 1 2 2v4a2 2 0 0 1-2 2zm-5-5.6v3.6h5v-4h-3.8a1 1 0 0 0-.9.5l-.3-.1zm16 5.6h-4a3 3 0 0 1-3-3v-8a3 3 0 0 1 3-3h4a3 3 0 0 1 3 3v8a3 3 0 0 1-3 3zm-4-12c-.6 0-1 .4-1 1v8c0 .6.4 1 1 1h4c.6 0 1-.4 1-1v-8c0-.6-.4-1-1-1h-4zm-22 4h5v2h-5v-2z"/><path fill="#46577C" d="M31.6 55.5h-7v-2h7v-10h-6v-2h6a2 2 0 0 1 2 2v10a2 2 0 0 1-2 2zm30-11a4 4 0 0 1-4-4 4 4 0 0 1 4-4 4 4 0 0 1 4 4 4 4 0 0 1-4 4zm0-6a2 2 0 0 0-2 2c0 1.1.9 2 2 2a2 2 0 0 0 2-2 2 2 0 0 0-2-2z"/><path fill="#fff" d="M144.6 34.4h-7.9c-3.6 0-11.8 2.8-14.4 3.9-2.6 1.1-3.4 4.3-3.6 6.5V54c.1 2.2 1.2 5.4 3.6 6.5a54 54 0 0 0 14.4 3.9h7.9s4.1-4.2 4.1-15-4.1-15-4.1-15z"/><path fill="#46577C" d="M144.9 65.4h-8.3c-3.9 0-12.6-3-14.8-4-2.8-1.3-4-4.8-4.1-7.4v-9.2c.1-1.4.7-5.8 4.2-7.4a55 55 0 0 1 14.8-4h8.3l.3.3c.2.2 4.3 4.7 4.3 15.7s-4.2 15.5-4.4 15.7l-.3.3zm-8.3-30c-3.4 0-11.5 2.7-14 3.8-2 .9-2.8 3.5-3 5.7V54c.1 2.1 1.1 4.8 3 5.6 4.5 1.9 9.2 3.2 14 3.8h7.4c.8-1.1 3.5-5.4 3.5-14s-2.7-12.9-3.5-14h-7.4zM96.8 79.8l-1.9-.4c.7-3.1 1.2-6.3 1.4-9.5 0-5.2-1.6-8.5-3.2-12-.8-1.5-1.4-3.1-2-4.8l1.8-.7c.6 1.6 1.2 3.1 2 4.5a27 27 0 0 1 3.4 12.9c-.1 3.4-.6 6.8-1.5 10z"/><path fill="#fff" d="M117.8 52.4h5v-7h-5"/><path fill="#46577C" d="M123.8 53.4h-6v-2h4v-5h-4v-2h6v9z"/><path fill="#fff" d="M97.8 45.4h-7v7h7"/><path fill="#46577C" d="M97.8 53.4h-8v-9h8v2h-6v5h6v2zm36.1 29.5c-2 0-13.6-3.3-15.6-6l-4.4-6.7 1.7-1.1 4.4 6.7c4.3 2.6 9 4.4 14 5.2a3 3 0 0 0 3.2-2.9l-.2-1.3-.2-.4c-.4-.8-.5-1.7-.4-2.6l.1-.5.5-.2c.8-.3 1.4-.9 1.8-1.6h2c0 1.2-1.3 2.5-2.5 3.2l.3 1.1.1.3a5 5 0 0 1-4.8 6.8z"/><path fill="#46577C" d="M123.7 78.6l-1.4 6-2-.4 1.4-6 2 .4zM131.6 69.8v-2c2.7 0 5.4-.4 8-1l-.2-.3c-.6-.9-1-1.9-1.2-2.9l2-.4c.2.8.5 1.6 1 2.3.4.8.9 1.6.4 2.4-1 1.6-9.8 1.9-10 1.9zm-9.8-27.4h2v13h-2v-13z"/><path fill="#fff" d="M112.8 37.4v-13h-9v13"/><path fill="#46577C" d="M113.8 37.4h-2v-12h-7v12h-2v-14h11v14z"/><path fill="#46577C" d="M135.1 35.1a13.4 13.4 0 0 0-7.2-5.7c-4.9-1.9-10.3-2.6-15.5-1.9l-.3-2c5.6-.7 11.3-.1 16.6 2 2.7 1.1 6.3 3.2 8.2 6.7l-1.8.9zM92.7 45.4l-2-.4a23 23 0 0 1 10.6-15.5l1.5-.9 1 1.8-1.4.8a21.3 21.3 0 0 0-9.7 14.2z"/><path fill="#fff" d="M117.8 51.9c0 5.2-4.3 9.5-9.5 9.5a9.6 9.6 0 0 1-9.5-9.5v-6c0-5.2 4.3-9.5 9.5-9.5s9.5 4.3 9.5 9.5v6z"/><path fill="#46577C" d="M108.3 62.4c-5.8 0-10.5-4.7-10.5-10.5v-6a10.5 10.5 0 0 1 21 0v6c0 5.8-4.7 10.5-10.5 10.5zm0-25a8.5 8.5 0 0 0-8.5 8.5v6a8.5 8.5 0 0 0 17 0v-6c0-4.7-3.9-8.5-8.5-8.5z"/><path fill="#46577C" d="M108.3 57.4a6.3 6.3 0 0 1-6.5-6h2a4.3 4.3 0 0 0 4.5 4c2.3.1 4.4-1.7 4.5-4h2c-.1 3.4-3 6.1-6.5 6z"/></svg>