<svg width="34" height="34" viewBox="0 0 34 34" fill="none" xmlns="http://www.w3.org/2000/svg">

<path d="M18.6393 18.6393C17.3036 20.0175 17.2064 21.7357 17.0911 25.5C20.6004 25.5 23.0229 25.4879 24.2736 24.2736C25.4879 23.0229 25.5 20.485 25.5 17.0911C21.7357 17.2125 20.0175 17.3036 18.6393 18.6393V18.6393ZM8.5 17.0911C8.5 20.485 8.51214 23.0229 9.72643 24.2736C10.9771 25.4879 13.3996 25.5 16.9089 25.5C16.7875 21.7357 16.6964 20.0175 15.3607 18.6393C13.9825 17.3036 12.2643 17.2064 8.5 17.0911V17.0911ZM16.9089 8.5C13.4057 8.5 10.9771 8.51214 9.72643 9.72643C8.51214 10.9771 8.5 13.515 8.5 16.9089C12.2643 16.7875 13.9825 16.6964 15.3607 15.3607C16.6964 13.9825 16.7936 12.2643 16.9089 8.5V8.5ZM18.6393 15.3607C17.3036 13.9825 17.2064 12.2643 17.0911 8.5C20.6004 8.5 23.0229 8.51214 24.2736 9.72643C25.4879 10.9771 25.5 13.515 25.5 16.9089C21.7357 16.7875 20.0175 16.6964 18.6393 15.3607" fill="white"/>
<path d="M25.5 17.0911V16.9089C21.7357 16.7875 20.0175 16.6964 18.6393 15.3607C17.3036 13.9825 17.2064 12.2643 17.0911 8.5H16.9089C16.7875 12.2643 16.6964 13.9825 15.3607 15.3607C13.9825 16.6964 12.2643 16.7936 8.5 16.9089V17.0911C12.2643 17.2125 13.9825 17.3036 15.3607 18.6393C16.6964 20.0175 16.7936 21.7357 16.9089 25.5H17.0911C17.2125 21.7357 17.3036 20.0175 18.6393 18.6393C20.0175 17.3036 21.7357 17.2064 25.5 17.0911" fill="none"/>
</svg>
